<svg xmlns="http://www.w3.org/2000/svg" width="491" height="491" fill="none" viewBox="0 0 491 491">
   <path fill="#C1561E"
      d="M124.5 373.005c3.667 4 11.5 12.5 13.5 14.5 3.556-.889 117.342-2.568 164-3.632 10.013-.229 20.102-.209 30-1.922 13.452-2.328 20.131-6.578 22-8.946H124.5Zm297-213c-11.6 0-23.167 6.333-27.5 9.5l-6-26 44-7 27 5.5 20.5 18 5 32.5-22 49-63.5 57-72.5 32.5c.833-3.667 3.3-11.8 6.5-15 128-59 126-119 126-123.5 2-29.5-34-32.5-37.5-32.5Z" />
   <path fill="#E9E7DE"
      d="M434 144.505c-16 .4-31 7.5-36.5 11H387c.667-4.5 4.3-14.7 13.5-19.5 11.5-6 30-5.5 33.5-5.5 58 1.5 56 48.5 56 52.5-7.6 90.8-116.833 143.167-170.5 158 2.333-4.167 7.2-13.5 8-17.5 149.031-55.824 149.002-135.995 149-140.46v-.04c-3.5-36.5-37-38.5-42.5-38.5Z" />
   <mask id="a" width="374" height="274" x="34" y="102" maskUnits="userSpaceOnUse"
      style="mask-type:alpha">
      <path fill="#F4F3ED"
         d="M130 363.505c-1.212-2.879-8.157-15.983-26.245-46-39.96-66.312-64.364-137.138-69.755-215h374c-5.39 77.862-29.794 148.688-69.755 215-18.088 30.017-25.033 43.121-26.245 46 24.463-1.025 67.077-2.128 83.5-.406 3.496.367 5.805.862 6.5 1.512 1.394 1.306-4.315 3.249-4.982 3.476l-.018.006c-2.889.984-6.716 1.907-11 2.749-7.953 1.565-17.479 2.854-25.5 3.753-6.87.77-13.588.91-20.5.91H102c-6.912 0-13.63-.14-20.5-.91-8.021-.899-17.547-2.188-25.5-3.753-4.283-.842-8.11-1.765-11-2.749l-.019-.006c-.667-.228-6.375-2.171-4.981-3.476.695-.65 3.004-1.145 6.5-1.512 16.423-1.722 59.037-.619 83.5.406Z" />
   </mask>
   <g mask="url(#a)">
      <path fill="#E9E7DE"
         d="M130 363.505c-1.212-2.879-8.157-15.983-26.245-46-39.96-66.312-64.364-137.138-69.755-215h374c-5.39 77.862-29.794 148.688-69.755 215-18.088 30.017-25.033 43.121-26.245 46 24.463-1.025 67.077-2.128 83.5-.406 3.496.367 5.805.862 6.5 1.512 1.394 1.306-4.315 3.249-4.982 3.476l-.018.006c-2.889.984-6.716 1.907-11 2.749-7.953 1.565-17.479 2.854-25.5 3.753-6.87.77-13.588.91-20.5.91H102c-6.912 0-13.63-.14-20.5-.91-8.021-.899-17.547-2.188-25.5-3.753-4.283-.842-8.11-1.765-11-2.749l-.019-.006c-.667-.228-6.375-2.171-4.981-3.476.695-.65 3.004-1.145 6.5-1.512 16.423-1.722 59.037-.619 83.5.406Z" />
   </g>
   <mask id="b" width="275" height="246" x="53" y="117" maskUnits="userSpaceOnUse"
      style="mask-type:alpha">
      <path fill="#D87324"
         d="m235.5 257.505 1.5-34h31v34h-32.5Zm53.5 105-55.5-94H294v31h34l-29 63h-10Zm-11 0h-52.5l7-80 45.5 80Zm-111 0-5-25h55l-1 25h-49Zm-15-25h-22.5l9 25h19l-5.5-25Zm-6-117 15 107h58l8-107h-81Zm-46.5 0h35l8 72-43-72Zm28.5 107-38.5-107 61.5 107h-23Zm101-118h-84l-7-48.5h57.5v33.5H230l-1 15Zm-91-59h22v-33h-25.5l3.5 33Zm-5 59H91.5l-38.5-92h70l10 92Z" />
   </mask>
   <g mask="url(#b)">
      <path fill="#D87324"
         d="m235.5 257.505 1.5-34h31v34h-32.5Zm53.5 105-55.5-94H294v31h34l-29 63h-10Zm-11 0h-52.5l7-80 45.5 80Zm-111 0-5-25h55l-1 25h-49Zm-15-25h-22.5l9 25h19l-5.5-25Zm-6-117 15 107h58l8-107h-81Zm-46.5 0h35l8 72-43-72Zm28.5 107-38.5-107 61.5 107h-23Zm101-118h-84l-7-48.5h57.5v33.5H230l-1 15Zm-91-59h22v-33h-25.5l3.5 33Zm-5 59H91.5l-38.5-92h70l10 92Z" />
      <path fill="#C1561E"
         d="M53.5 130.505H107l11.5 79 17.5 3-9.5-98-78-2.5 5 18.5Zm93.5 0h-12l-2 .5-2-16h32v36.5h-16v-21Zm32 42v39.5l52.5.5 2-20.5-33.5-2v-31.5l-64 1.5 2.5 12 40.5.5Zm-59.5 60h-15l-9.5-16 41 .5 8 34 .5 44h-3l-10-14-12-48.5Zm7 98.5L87 221.505v-9.5l51.5 87 17 31-29 1Zm77.5 16.5v16.5l13 .5 4-29-62.5.5 4 11.5H204Zm-63 0h-11.5l-3.5-11 28-1.5 6.5 30-14 .5-5.5-18Zm69-114h-65l-4-16 90.5.5-8.5 110.5h-20l7-95Zm40 3h-17l3.5-17.5 34.5-2 2.5 43-23.5.5v-24Zm4.5 127.5-25.5-48.5-.5-31 4.5-9.5 50.5 88-29 1Zm22.5-82.5h-38l-5-8-3.5-8 64-1 34.5 34.5-19 11.5h-33v-29Z" />
   </g>
   <path fill="#C1561E"
      d="m40 176.505-18-45H2l-2-14h41l21.5 59H40Zm64 186-61-162.5H21l-12-13.5h55l61.5 176H104Z" />
   <path fill="#E9E7DE" d="M4.5 176.505H56l6.5 10H9l-4.5-10Zm7.5-74h30l-1.5 15H0l12-15Z" />
</svg>